# xmcd CD database file
#
# Track frame offsets:
#	150
#	32787
#	61737
#	89562
#	108950
#	150987
#	182495
#	209525
#
# Disc length: 3347 seconds
#
# Revision: 3
# Processed by: cddbd v1.5.2PL0 Copyright (c) Steve Scherf et al.
# Submitted via: CDex 1.70beta2
#
DISCID=5f0d1108
DTITLE=Jean-Philippe Viret  - Considerations 
DYEAR=2001
DGENRE=Jazz
TTITLE0=Madame Loire
TTITLE1=Iode 131
TTITLE2=Balad
TTITLE3=La fable du thon
TTITLE4=Microwave
TTITLE5=Le Batard
TTITLE6=Une vie simple
TTITLE7=Zazimut
EXTD=YEAR: 2001
EXTT0=
EXTT1=
EXTT2=
EXTT3=
EXTT4=
EXTT5=
EXTT6=
EXTT7=
PLAYORDER=
